<mxfile host="Electron" modified="2024-03-24T10:29:11.527Z" agent="Mozilla/5.0 (Windows NT 10.0; Win64; x64) AppleWebKit/537.36 (KHTML, like Gecko) draw.io/23.1.5 Chrome/120.0.6099.109 Electron/28.1.0 Safari/537.36" etag="notjJuYtDawNBvU9bzv4" version="23.1.5" type="device">
  <diagram name="Page-1" id="_ZmIKKChAh4cNi4tMBcN">
    <mxGraphModel dx="2551" dy="3008" grid="1" gridSize="10" guides="1" tooltips="1" connect="1" arrows="1" fold="1" page="1" pageScale="1" pageWidth="850" pageHeight="1100" math="0" shadow="0">
      <root>
        <mxCell id="0" />
        <mxCell id="1" parent="0" />
        <mxCell id="rH0CdrNNq3nPDVMNNMGI-1" value="Event" style="text;html=1;align=center;verticalAlign=middle;resizable=0;points=[];autosize=1;strokeColor=none;fillColor=none;" parent="1" vertex="1">
          <mxGeometry x="-260" y="-930" width="50" height="30" as="geometry" />
        </mxCell>
        <mxCell id="rH0CdrNNq3nPDVMNNMGI-435" style="edgeStyle=orthogonalEdgeStyle;curved=1;rounded=0;orthogonalLoop=1;jettySize=auto;html=1;exitX=0;exitY=0.75;exitDx=0;exitDy=0;entryX=0.364;entryY=1.044;entryDx=0;entryDy=0;entryPerimeter=0;" parent="1" source="rH0CdrNNq3nPDVMNNMGI-2" target="rH0CdrNNq3nPDVMNNMGI-377" edge="1">
          <mxGeometry relative="1" as="geometry">
            <mxPoint x="564.94" y="-110" as="targetPoint" />
            <mxPoint x="-275.1599999999999" y="-860" as="sourcePoint" />
            <Array as="points">
              <mxPoint x="-265" y="-860" />
              <mxPoint x="-355" y="-860" />
              <mxPoint x="-355" y="-850" />
              <mxPoint x="-455" y="-850" />
              <mxPoint x="-455" y="-175" />
              <mxPoint x="315" y="-175" />
              <mxPoint x="315" y="-10" />
              <mxPoint x="574" y="-10" />
            </Array>
          </mxGeometry>
        </mxCell>
        <mxCell id="53xANSUxu1wuUrc7C31E-39" style="edgeStyle=orthogonalEdgeStyle;rounded=0;orthogonalLoop=1;jettySize=auto;html=1;entryX=0.5;entryY=0;entryDx=0;entryDy=0;" edge="1" parent="1">
          <mxGeometry relative="1" as="geometry">
            <mxPoint x="1444.5" y="-950" as="targetPoint" />
            <mxPoint x="-210" y="-900" as="sourcePoint" />
            <Array as="points">
              <mxPoint x="-220" y="-909" />
              <mxPoint x="-220" y="-920" />
              <mxPoint x="-200" y="-920" />
              <mxPoint x="-200" y="-1000" />
              <mxPoint x="1445" y="-1000" />
            </Array>
          </mxGeometry>
        </mxCell>
        <mxCell id="rH0CdrNNq3nPDVMNNMGI-2" value="event_id&amp;nbsp; &amp;nbsp; &amp;nbsp; event_name&amp;nbsp; &amp;nbsp; &amp;nbsp;date&amp;nbsp; &amp;nbsp; &amp;nbsp; time&amp;nbsp; &amp;nbsp; &amp;nbsp; &amp;nbsp;event_description" style="rounded=0;whiteSpace=wrap;html=1;align=left;" parent="1" vertex="1">
          <mxGeometry x="-265" y="-900" width="700" height="50" as="geometry" />
        </mxCell>
        <mxCell id="rH0CdrNNq3nPDVMNNMGI-7" value="venue&amp;nbsp; &amp;nbsp; &amp;nbsp; image&amp;nbsp; &amp;nbsp; &amp;nbsp; &amp;nbsp; &amp;nbsp; &amp;nbsp; &amp;nbsp; &amp;nbsp; &amp;nbsp; &amp;nbsp; &amp;nbsp; &amp;nbsp;ticket&amp;nbsp; &amp;nbsp;&amp;nbsp;" style="text;html=1;strokeColor=none;fillColor=none;align=center;verticalAlign=middle;whiteSpace=wrap;rounded=0;" parent="1" vertex="1">
          <mxGeometry x="50" y="-890" width="380" height="30" as="geometry" />
        </mxCell>
        <mxCell id="rH0CdrNNq3nPDVMNNMGI-10" value="location" style="text;html=1;strokeColor=none;fillColor=none;align=center;verticalAlign=middle;whiteSpace=wrap;rounded=0;" parent="1" vertex="1">
          <mxGeometry x="355" y="-890" width="60" height="30" as="geometry" />
        </mxCell>
        <mxCell id="rH0CdrNNq3nPDVMNNMGI-11" value="" style="endArrow=none;html=1;rounded=0;exitX=0.083;exitY=1.008;exitDx=0;exitDy=0;exitPerimeter=0;entryX=0.083;entryY=0.016;entryDx=0;entryDy=0;entryPerimeter=0;" parent="1" source="rH0CdrNNq3nPDVMNNMGI-2" target="rH0CdrNNq3nPDVMNNMGI-2" edge="1">
          <mxGeometry width="50" height="50" relative="1" as="geometry">
            <mxPoint x="-208" y="-847" as="sourcePoint" />
            <mxPoint x="-205" y="-890" as="targetPoint" />
          </mxGeometry>
        </mxCell>
        <mxCell id="rH0CdrNNq3nPDVMNNMGI-12" value="" style="endArrow=none;html=1;rounded=0;" parent="1" edge="1">
          <mxGeometry width="50" height="50" relative="1" as="geometry">
            <mxPoint x="-125" y="-850" as="sourcePoint" />
            <mxPoint x="-125" y="-900" as="targetPoint" />
          </mxGeometry>
        </mxCell>
        <mxCell id="rH0CdrNNq3nPDVMNNMGI-15" value="" style="endArrow=none;html=1;rounded=0;entryX=0.262;entryY=-0.016;entryDx=0;entryDy=0;entryPerimeter=0;" parent="1" target="rH0CdrNNq3nPDVMNNMGI-2" edge="1">
          <mxGeometry width="50" height="50" relative="1" as="geometry">
            <mxPoint x="-82" y="-850" as="sourcePoint" />
            <mxPoint x="-75" y="-900" as="targetPoint" />
          </mxGeometry>
        </mxCell>
        <mxCell id="rH0CdrNNq3nPDVMNNMGI-16" value="" style="endArrow=none;html=1;rounded=0;exitX=0.33;exitY=1.024;exitDx=0;exitDy=0;exitPerimeter=0;entryX=0.33;entryY=0.016;entryDx=0;entryDy=0;entryPerimeter=0;" parent="1" source="rH0CdrNNq3nPDVMNNMGI-2" target="rH0CdrNNq3nPDVMNNMGI-2" edge="1">
          <mxGeometry width="50" height="50" relative="1" as="geometry">
            <mxPoint x="-85" y="-850" as="sourcePoint" />
            <mxPoint x="-35" y="-900" as="targetPoint" />
          </mxGeometry>
        </mxCell>
        <mxCell id="rH0CdrNNq3nPDVMNNMGI-17" value="" style="endArrow=none;html=1;rounded=0;" parent="1" edge="1">
          <mxGeometry width="50" height="50" relative="1" as="geometry">
            <mxPoint x="75" y="-850" as="sourcePoint" />
            <mxPoint x="75" y="-900" as="targetPoint" />
          </mxGeometry>
        </mxCell>
        <mxCell id="rH0CdrNNq3nPDVMNNMGI-19" value="" style="endArrow=none;html=1;rounded=0;" parent="1" edge="1">
          <mxGeometry width="50" height="50" relative="1" as="geometry">
            <mxPoint x="177" y="-850" as="sourcePoint" />
            <mxPoint x="177" y="-900" as="targetPoint" />
          </mxGeometry>
        </mxCell>
        <mxCell id="rH0CdrNNq3nPDVMNNMGI-20" value="" style="endArrow=none;html=1;rounded=0;entryX=0.75;entryY=0;entryDx=0;entryDy=0;exitX=0.75;exitY=1;exitDx=0;exitDy=0;" parent="1" source="rH0CdrNNq3nPDVMNNMGI-2" target="rH0CdrNNq3nPDVMNNMGI-2" edge="1">
          <mxGeometry width="50" height="50" relative="1" as="geometry">
            <mxPoint x="255" y="-840" as="sourcePoint" />
            <mxPoint x="265" y="-900" as="targetPoint" />
          </mxGeometry>
        </mxCell>
        <mxCell id="rH0CdrNNq3nPDVMNNMGI-21" value="" style="endArrow=none;html=1;rounded=0;" parent="1" edge="1">
          <mxGeometry width="50" height="50" relative="1" as="geometry">
            <mxPoint x="355" y="-850" as="sourcePoint" />
            <mxPoint x="355" y="-900" as="targetPoint" />
          </mxGeometry>
        </mxCell>
        <mxCell id="rH0CdrNNq3nPDVMNNMGI-22" value="User" style="text;html=1;align=center;verticalAlign=middle;resizable=0;points=[];autosize=1;strokeColor=none;fillColor=none;" parent="1" vertex="1">
          <mxGeometry x="-210" y="-750" width="50" height="30" as="geometry" />
        </mxCell>
        <mxCell id="rH0CdrNNq3nPDVMNNMGI-361" value="Text" style="text;html=1;align=center;verticalAlign=middle;resizable=0;points=[];autosize=1;strokeColor=none;fillColor=none;" parent="1" vertex="1">
          <mxGeometry x="3570" y="-460" width="50" height="30" as="geometry" />
        </mxCell>
        <mxCell id="rH0CdrNNq3nPDVMNNMGI-396" style="edgeStyle=orthogonalEdgeStyle;curved=1;rounded=0;orthogonalLoop=1;jettySize=auto;html=1;exitX=0.25;exitY=0;exitDx=0;exitDy=0;" parent="1" source="53xANSUxu1wuUrc7C31E-13" target="rH0CdrNNq3nPDVMNNMGI-383" edge="1">
          <mxGeometry relative="1" as="geometry">
            <mxPoint x="-220" y="-655" as="sourcePoint" />
            <Array as="points">
              <mxPoint x="-200" y="-720" />
              <mxPoint x="-200" y="-810" />
              <mxPoint x="475" y="-810" />
            </Array>
          </mxGeometry>
        </mxCell>
        <mxCell id="rH0CdrNNq3nPDVMNNMGI-364" value="Notification" style="text;html=1;strokeColor=none;fillColor=none;align=center;verticalAlign=middle;whiteSpace=wrap;rounded=0;" parent="1" vertex="1">
          <mxGeometry x="-200" y="-539.99" width="60" height="30" as="geometry" />
        </mxCell>
        <mxCell id="rH0CdrNNq3nPDVMNNMGI-365" value="" style="rounded=0;whiteSpace=wrap;html=1;" parent="1" vertex="1">
          <mxGeometry x="-200" y="-499.99" width="530" height="50" as="geometry" />
        </mxCell>
        <mxCell id="rH0CdrNNq3nPDVMNNMGI-366" value="notification_id&amp;nbsp; &amp;nbsp; &amp;nbsp; &amp;nbsp; &amp;nbsp;content&amp;nbsp; &amp;nbsp; &amp;nbsp;notification_status&amp;nbsp; &amp;nbsp; &amp;nbsp;email_address" style="text;html=1;strokeColor=none;fillColor=none;align=center;verticalAlign=middle;whiteSpace=wrap;rounded=0;" parent="1" vertex="1">
          <mxGeometry x="-200" y="-489.99" width="390" height="30" as="geometry" />
        </mxCell>
        <mxCell id="rH0CdrNNq3nPDVMNNMGI-368" value="Event owner" style="text;html=1;strokeColor=none;fillColor=none;align=center;verticalAlign=middle;whiteSpace=wrap;rounded=0;" parent="1" vertex="1">
          <mxGeometry x="-255" y="-400" width="115" height="30" as="geometry" />
        </mxCell>
        <mxCell id="rH0CdrNNq3nPDVMNNMGI-369" value="" style="rounded=0;whiteSpace=wrap;html=1;direction=west;" parent="1" vertex="1">
          <mxGeometry x="-250" y="-360" width="300" height="50" as="geometry" />
        </mxCell>
        <mxCell id="rH0CdrNNq3nPDVMNNMGI-370" value="user_id&amp;nbsp; &amp;nbsp; &amp;nbsp; &amp;nbsp; &amp;nbsp; &amp;nbsp; &amp;nbsp;contact" style="text;html=1;strokeColor=none;fillColor=none;align=center;verticalAlign=middle;whiteSpace=wrap;rounded=0;" parent="1" vertex="1">
          <mxGeometry x="-170" y="-350" width="200" height="30" as="geometry" />
        </mxCell>
        <mxCell id="rH0CdrNNq3nPDVMNNMGI-371" value="Verification" style="text;html=1;strokeColor=none;fillColor=none;align=center;verticalAlign=middle;whiteSpace=wrap;rounded=0;" parent="1" vertex="1">
          <mxGeometry x="725" y="-659.08" width="60" height="30" as="geometry" />
        </mxCell>
        <mxCell id="rH0CdrNNq3nPDVMNNMGI-427" style="edgeStyle=orthogonalEdgeStyle;curved=1;rounded=0;orthogonalLoop=1;jettySize=auto;html=1;entryX=0.728;entryY=0.997;entryDx=0;entryDy=0;entryPerimeter=0;exitX=0.125;exitY=0.984;exitDx=0;exitDy=0;exitPerimeter=0;" parent="1" target="rH0CdrNNq3nPDVMNNMGI-369" edge="1" source="rH0CdrNNq3nPDVMNNMGI-372">
          <mxGeometry relative="1" as="geometry">
            <mxPoint x="-80" y="-430" as="targetPoint" />
            <mxPoint x="560" y="-600" as="sourcePoint" />
            <Array as="points">
              <mxPoint x="777" y="-560" />
              <mxPoint x="760" y="-560" />
              <mxPoint x="760" y="-540" />
              <mxPoint x="901" y="-540" />
              <mxPoint x="901" y="-250" />
              <mxPoint x="160" y="-250" />
              <mxPoint x="160" y="-390" />
              <mxPoint x="-140" y="-390" />
              <mxPoint x="-140" y="-380" />
              <mxPoint x="-168" y="-380" />
            </Array>
          </mxGeometry>
        </mxCell>
        <mxCell id="rH0CdrNNq3nPDVMNNMGI-372" value="" style="rounded=0;whiteSpace=wrap;html=1;" parent="1" vertex="1">
          <mxGeometry x="725" y="-629.08" width="420" height="40" as="geometry" />
        </mxCell>
        <mxCell id="rH0CdrNNq3nPDVMNNMGI-373" value="verification_id&amp;nbsp; &amp;nbsp; &amp;nbsp; &amp;nbsp; &amp;nbsp;user&amp;nbsp; &amp;nbsp;_&amp;nbsp; &amp;nbsp; id&amp;nbsp; &amp;nbsp; verification_notes" style="text;html=1;strokeColor=none;fillColor=none;align=left;verticalAlign=middle;whiteSpace=wrap;rounded=0;" parent="1" vertex="1">
          <mxGeometry x="735" y="-624.08" width="290" height="30" as="geometry" />
        </mxCell>
        <mxCell id="rH0CdrNNq3nPDVMNNMGI-375" value="verification_status" style="text;html=1;strokeColor=none;fillColor=none;align=center;verticalAlign=middle;whiteSpace=wrap;rounded=0;" parent="1" vertex="1">
          <mxGeometry x="1015" y="-624.08" width="130" height="30" as="geometry" />
        </mxCell>
        <mxCell id="rH0CdrNNq3nPDVMNNMGI-376" value="Commentary" style="text;html=1;strokeColor=none;fillColor=none;align=center;verticalAlign=middle;whiteSpace=wrap;rounded=0;" parent="1" vertex="1">
          <mxGeometry x="455" y="-210" width="60" height="30" as="geometry" />
        </mxCell>
        <mxCell id="rH0CdrNNq3nPDVMNNMGI-377" value="" style="rounded=0;whiteSpace=wrap;html=1;" parent="1" vertex="1">
          <mxGeometry x="445" y="-180" width="355" height="50" as="geometry" />
        </mxCell>
        <mxCell id="rH0CdrNNq3nPDVMNNMGI-378" value="commentary_id&amp;nbsp; &amp;nbsp; &amp;nbsp;user_id&amp;nbsp; &amp;nbsp; event_id&amp;nbsp; &amp;nbsp; comment&amp;nbsp; &amp;nbsp; &amp;nbsp;stars" style="text;html=1;strokeColor=none;fillColor=none;align=center;verticalAlign=middle;whiteSpace=wrap;rounded=0;" parent="1" vertex="1">
          <mxGeometry x="455" y="-170.42000000000002" width="320" height="30" as="geometry" />
        </mxCell>
        <mxCell id="rH0CdrNNq3nPDVMNNMGI-383" value="user_id" style="rounded=0;whiteSpace=wrap;html=1;" parent="1" vertex="1">
          <mxGeometry x="430" y="-900" width="90" height="50" as="geometry" />
        </mxCell>
        <mxCell id="rH0CdrNNq3nPDVMNNMGI-384" value="" style="endArrow=none;dashed=1;html=1;rounded=0;exitX=0.222;exitY=0.8;exitDx=0;exitDy=0;exitPerimeter=0;" parent="1" edge="1">
          <mxGeometry width="50" height="50" relative="1" as="geometry">
            <mxPoint x="449.99" y="-860.83" as="sourcePoint" />
            <mxPoint x="500.01" y="-860.83" as="targetPoint" />
          </mxGeometry>
        </mxCell>
        <mxCell id="rH0CdrNNq3nPDVMNNMGI-386" value="user_id" style="text;html=1;strokeColor=none;fillColor=none;align=center;verticalAlign=middle;whiteSpace=wrap;rounded=0;" parent="1" vertex="1">
          <mxGeometry x="190" y="-490.40999999999997" width="90" height="30" as="geometry" />
        </mxCell>
        <mxCell id="rH0CdrNNq3nPDVMNNMGI-387" value="" style="endArrow=none;dashed=1;html=1;rounded=0;" parent="1" edge="1">
          <mxGeometry width="50" height="50" relative="1" as="geometry">
            <mxPoint x="210" y="-467.99" as="sourcePoint" />
            <mxPoint x="270" y="-467.99" as="targetPoint" />
          </mxGeometry>
        </mxCell>
        <mxCell id="rH0CdrNNq3nPDVMNNMGI-392" value="" style="endArrow=none;html=1;rounded=0;" parent="1" source="rH0CdrNNq3nPDVMNNMGI-366" edge="1">
          <mxGeometry width="50" height="50" relative="1" as="geometry">
            <mxPoint x="-150" y="-410.40999999999997" as="sourcePoint" />
            <mxPoint x="-100" y="-460.40999999999997" as="targetPoint" />
            <Array as="points">
              <mxPoint x="-190" y="-459.99" />
              <mxPoint x="-180" y="-459.99" />
            </Array>
          </mxGeometry>
        </mxCell>
        <mxCell id="rH0CdrNNq3nPDVMNNMGI-397" style="edgeStyle=orthogonalEdgeStyle;curved=1;rounded=0;orthogonalLoop=1;jettySize=auto;html=1;entryX=0.833;entryY=0.03;entryDx=0;entryDy=0;entryPerimeter=0;exitX=0;exitY=1;exitDx=0;exitDy=0;" parent="1" target="rH0CdrNNq3nPDVMNNMGI-365" edge="1" source="53xANSUxu1wuUrc7C31E-13">
          <mxGeometry relative="1" as="geometry">
            <mxPoint x="-184.80999999999995" y="-639.4000000000001" as="sourcePoint" />
            <Array as="points">
              <mxPoint x="-240" y="-510" />
              <mxPoint x="241" y="-510" />
            </Array>
          </mxGeometry>
        </mxCell>
        <mxCell id="rH0CdrNNq3nPDVMNNMGI-400" value="" style="endArrow=none;dashed=1;html=1;rounded=0;curved=1;exitX=0;exitY=1;exitDx=0;exitDy=0;" parent="1" edge="1">
          <mxGeometry width="50" height="50" relative="1" as="geometry">
            <mxPoint x="-130" y="-320.83" as="sourcePoint" />
            <mxPoint x="-76.40999999999997" y="-320.68" as="targetPoint" />
          </mxGeometry>
        </mxCell>
        <mxCell id="rH0CdrNNq3nPDVMNNMGI-408" value="" style="endArrow=none;html=1;rounded=0;" parent="1" target="rH0CdrNNq3nPDVMNNMGI-378" edge="1">
          <mxGeometry width="50" height="50" relative="1" as="geometry">
            <mxPoint x="465" y="-140.42000000000002" as="sourcePoint" />
            <mxPoint x="535" y="-140" as="targetPoint" />
            <Array as="points" />
          </mxGeometry>
        </mxCell>
        <mxCell id="rH0CdrNNq3nPDVMNNMGI-409" value="" style="endArrow=none;html=1;rounded=0;" parent="1" edge="1">
          <mxGeometry width="50" height="50" relative="1" as="geometry">
            <mxPoint x="460" y="-140.41999999999996" as="sourcePoint" />
            <mxPoint x="535" y="-140" as="targetPoint" />
            <Array as="points">
              <mxPoint x="545" y="-140" />
            </Array>
          </mxGeometry>
        </mxCell>
        <mxCell id="rH0CdrNNq3nPDVMNNMGI-410" value="" style="endArrow=none;dashed=1;html=1;rounded=0;" parent="1" edge="1">
          <mxGeometry width="50" height="50" relative="1" as="geometry">
            <mxPoint x="555" y="-140.41999999999996" as="sourcePoint" />
            <mxPoint x="595" y="-140" as="targetPoint" />
          </mxGeometry>
        </mxCell>
        <mxCell id="rH0CdrNNq3nPDVMNNMGI-416" style="edgeStyle=orthogonalEdgeStyle;curved=1;rounded=0;orthogonalLoop=1;jettySize=auto;html=1;entryX=0.375;entryY=-0.01;entryDx=0;entryDy=0;entryPerimeter=0;exitX=0;exitY=0.75;exitDx=0;exitDy=0;" parent="1" target="rH0CdrNNq3nPDVMNNMGI-377" edge="1" source="53xANSUxu1wuUrc7C31E-13">
          <mxGeometry relative="1" as="geometry">
            <mxPoint x="-160.83999999999992" y="-641.8" as="sourcePoint" />
            <mxPoint x="557.3800000000002" y="-370.0000000000001" as="targetPoint" />
            <Array as="points">
              <mxPoint x="-240" y="-681" />
              <mxPoint x="-270" y="-681" />
              <mxPoint x="-270" y="-637" />
              <mxPoint x="-260" y="-637" />
              <mxPoint x="-260" y="-420" />
              <mxPoint x="190" y="-420" />
              <mxPoint x="190" y="-310" />
              <mxPoint x="578" y="-310" />
            </Array>
          </mxGeometry>
        </mxCell>
        <mxCell id="rH0CdrNNq3nPDVMNNMGI-425" value="" style="endArrow=none;html=1;rounded=0;curved=1;exitX=0.328;exitY=0.833;exitDx=0;exitDy=0;exitPerimeter=0;" parent="1" edge="1">
          <mxGeometry width="50" height="50" relative="1" as="geometry">
            <mxPoint x="737.56" y="-599.08" as="sourcePoint" />
            <mxPoint x="812.4399999999999" y="-599.07" as="targetPoint" />
          </mxGeometry>
        </mxCell>
        <mxCell id="rH0CdrNNq3nPDVMNNMGI-426" value="" style="endArrow=none;dashed=1;html=1;rounded=0;curved=1;exitX=0.328;exitY=0.833;exitDx=0;exitDy=0;exitPerimeter=0;" parent="1" edge="1">
          <mxGeometry width="50" height="50" relative="1" as="geometry">
            <mxPoint x="829.9999999999999" y="-599.0799999999998" as="sourcePoint" />
            <mxPoint x="909.88" y="-599.07" as="targetPoint" />
          </mxGeometry>
        </mxCell>
        <mxCell id="rH0CdrNNq3nPDVMNNMGI-428" value="event_owner_id" style="text;html=1;strokeColor=none;fillColor=none;align=center;verticalAlign=middle;whiteSpace=wrap;rounded=0;" parent="1" vertex="1">
          <mxGeometry x="-227.5" y="-350" width="60" height="30" as="geometry" />
        </mxCell>
        <mxCell id="rH0CdrNNq3nPDVMNNMGI-429" value="" style="endArrow=none;html=1;rounded=0;curved=1;entryX=0.065;entryY=0.961;entryDx=0;entryDy=0;entryPerimeter=0;" parent="1" target="rH0CdrNNq3nPDVMNNMGI-370" edge="1">
          <mxGeometry width="50" height="50" relative="1" as="geometry">
            <mxPoint x="-240" y="-320" as="sourcePoint" />
            <mxPoint x="-190" y="-370" as="targetPoint" />
          </mxGeometry>
        </mxCell>
        <mxCell id="rH0CdrNNq3nPDVMNNMGI-430" value="" style="endArrow=none;html=1;rounded=0;curved=1;" parent="1" target="rH0CdrNNq3nPDVMNNMGI-2" edge="1">
          <mxGeometry width="50" height="50" relative="1" as="geometry">
            <mxPoint x="-265" y="-860" as="sourcePoint" />
            <mxPoint x="-215" y="-910" as="targetPoint" />
          </mxGeometry>
        </mxCell>
        <mxCell id="rH0CdrNNq3nPDVMNNMGI-432" value="" style="endArrow=none;html=1;rounded=0;curved=1;" parent="1" target="rH0CdrNNq3nPDVMNNMGI-2" edge="1">
          <mxGeometry width="50" height="50" relative="1" as="geometry">
            <mxPoint x="-265" y="-860" as="sourcePoint" />
            <mxPoint x="-215" y="-910" as="targetPoint" />
          </mxGeometry>
        </mxCell>
        <mxCell id="rH0CdrNNq3nPDVMNNMGI-433" value="" style="endArrow=none;html=1;rounded=0;curved=1;" parent="1" edge="1">
          <mxGeometry width="50" height="50" relative="1" as="geometry">
            <mxPoint x="-260" y="-860.0922950819673" as="sourcePoint" />
            <mxPoint x="-215" y="-860.83" as="targetPoint" />
          </mxGeometry>
        </mxCell>
        <mxCell id="rH0CdrNNq3nPDVMNNMGI-437" value="" style="endArrow=none;html=1;rounded=0;curved=1;entryX=0.324;entryY=-0.035;entryDx=0;entryDy=0;entryPerimeter=0;" parent="1" target="rH0CdrNNq3nPDVMNNMGI-365" edge="1">
          <mxGeometry width="50" height="50" relative="1" as="geometry">
            <mxPoint x="-30" y="-449.99" as="sourcePoint" />
            <mxPoint x="10" y="-489.99" as="targetPoint" />
          </mxGeometry>
        </mxCell>
        <mxCell id="rH0CdrNNq3nPDVMNNMGI-438" value="" style="endArrow=none;html=1;rounded=0;curved=1;exitX=0.209;exitY=1.062;exitDx=0;exitDy=0;exitPerimeter=0;" parent="1" source="rH0CdrNNq3nPDVMNNMGI-365" edge="1">
          <mxGeometry width="50" height="50" relative="1" as="geometry">
            <mxPoint x="-40" y="-439.99" as="sourcePoint" />
            <mxPoint x="-90" y="-499.99" as="targetPoint" />
          </mxGeometry>
        </mxCell>
        <mxCell id="rH0CdrNNq3nPDVMNNMGI-440" value="" style="endArrow=none;html=1;rounded=0;curved=1;entryX=0.535;entryY=0.01;entryDx=0;entryDy=0;entryPerimeter=0;exitX=0.535;exitY=1.062;exitDx=0;exitDy=0;exitPerimeter=0;" parent="1" source="rH0CdrNNq3nPDVMNNMGI-365" target="rH0CdrNNq3nPDVMNNMGI-365" edge="1">
          <mxGeometry width="50" height="50" relative="1" as="geometry">
            <mxPoint x="-40" y="-439.99" as="sourcePoint" />
            <mxPoint x="10" y="-489.99" as="targetPoint" />
          </mxGeometry>
        </mxCell>
        <mxCell id="rH0CdrNNq3nPDVMNNMGI-441" value="" style="endArrow=none;html=1;rounded=0;curved=1;entryX=0.737;entryY=0.041;entryDx=0;entryDy=0;exitX=0.737;exitY=1.047;exitDx=0;exitDy=0;exitPerimeter=0;entryPerimeter=0;" parent="1" source="rH0CdrNNq3nPDVMNNMGI-365" target="rH0CdrNNq3nPDVMNNMGI-365" edge="1">
          <mxGeometry width="50" height="50" relative="1" as="geometry">
            <mxPoint x="-40" y="-439.99" as="sourcePoint" />
            <mxPoint x="10" y="-489.99" as="targetPoint" />
          </mxGeometry>
        </mxCell>
        <mxCell id="rH0CdrNNq3nPDVMNNMGI-442" value="" style="endArrow=none;html=1;rounded=0;curved=1;exitX=0.395;exitY=-0.041;exitDx=0;exitDy=0;exitPerimeter=0;entryX=0.398;entryY=0.98;entryDx=0;entryDy=0;entryPerimeter=0;" parent="1" source="rH0CdrNNq3nPDVMNNMGI-369" target="rH0CdrNNq3nPDVMNNMGI-369" edge="1">
          <mxGeometry width="50" height="50" relative="1" as="geometry">
            <mxPoint x="-40" y="-300" as="sourcePoint" />
            <mxPoint x="-60" y="-370" as="targetPoint" />
            <Array as="points">
              <mxPoint x="-68" y="-340" />
            </Array>
          </mxGeometry>
        </mxCell>
        <mxCell id="rH0CdrNNq3nPDVMNNMGI-443" value="" style="endArrow=none;html=1;rounded=0;curved=1;entryX=0.654;entryY=1.056;entryDx=0;entryDy=0;entryPerimeter=0;" parent="1" target="rH0CdrNNq3nPDVMNNMGI-369" edge="1">
          <mxGeometry width="50" height="50" relative="1" as="geometry">
            <mxPoint x="-146" y="-310" as="sourcePoint" />
            <mxPoint x="10" y="-350" as="targetPoint" />
          </mxGeometry>
        </mxCell>
        <mxCell id="rH0CdrNNq3nPDVMNNMGI-454" value="" style="endArrow=none;html=1;rounded=0;curved=1;exitX=0.227;exitY=1.063;exitDx=0;exitDy=0;exitPerimeter=0;entryX=0.229;entryY=-0.023;entryDx=0;entryDy=0;entryPerimeter=0;" parent="1" source="rH0CdrNNq3nPDVMNNMGI-372" target="rH0CdrNNq3nPDVMNNMGI-372" edge="1">
          <mxGeometry width="50" height="50" relative="1" as="geometry">
            <mxPoint x="800" y="-539.08" as="sourcePoint" />
            <mxPoint x="819" y="-623.08" as="targetPoint" />
          </mxGeometry>
        </mxCell>
        <mxCell id="rH0CdrNNq3nPDVMNNMGI-455" value="" style="endArrow=none;html=1;rounded=0;curved=1;exitX=0.62;exitY=1.124;exitDx=0;exitDy=0;exitPerimeter=0;entryX=0.452;entryY=0.035;entryDx=0;entryDy=0;entryPerimeter=0;" parent="1" source="rH0CdrNNq3nPDVMNNMGI-373" target="rH0CdrNNq3nPDVMNNMGI-372" edge="1">
          <mxGeometry width="50" height="50" relative="1" as="geometry">
            <mxPoint x="870" y="-574.08" as="sourcePoint" />
            <mxPoint x="920" y="-624.08" as="targetPoint" />
          </mxGeometry>
        </mxCell>
        <mxCell id="rH0CdrNNq3nPDVMNNMGI-456" value="" style="endArrow=none;html=1;rounded=0;curved=1;entryX=0.704;entryY=-0.023;entryDx=0;entryDy=0;entryPerimeter=0;" parent="1" target="rH0CdrNNq3nPDVMNNMGI-372" edge="1">
          <mxGeometry width="50" height="50" relative="1" as="geometry">
            <mxPoint x="1021" y="-589.08" as="sourcePoint" />
            <mxPoint x="1030" y="-624.08" as="targetPoint" />
          </mxGeometry>
        </mxCell>
        <mxCell id="rH0CdrNNq3nPDVMNNMGI-457" value="" style="endArrow=none;html=1;rounded=0;curved=1;entryX=0.302;entryY=0.022;entryDx=0;entryDy=0;entryPerimeter=0;exitX=0.298;exitY=1.028;exitDx=0;exitDy=0;exitPerimeter=0;" parent="1" source="rH0CdrNNq3nPDVMNNMGI-377" target="rH0CdrNNq3nPDVMNNMGI-377" edge="1">
          <mxGeometry width="50" height="50" relative="1" as="geometry">
            <mxPoint x="555" y="-140" as="sourcePoint" />
            <mxPoint x="555" y="-180" as="targetPoint" />
          </mxGeometry>
        </mxCell>
        <mxCell id="rH0CdrNNq3nPDVMNNMGI-459" value="" style="endArrow=none;html=1;rounded=0;curved=1;exitX=0.624;exitY=0.967;exitDx=0;exitDy=0;exitPerimeter=0;entryX=0.627;entryY=-0.054;entryDx=0;entryDy=0;entryPerimeter=0;" parent="1" source="rH0CdrNNq3nPDVMNNMGI-377" target="rH0CdrNNq3nPDVMNNMGI-377" edge="1">
          <mxGeometry width="50" height="50" relative="1" as="geometry">
            <mxPoint x="625" y="-120" as="sourcePoint" />
            <mxPoint x="665" y="-170" as="targetPoint" />
          </mxGeometry>
        </mxCell>
        <mxCell id="rH0CdrNNq3nPDVMNNMGI-462" value="" style="endArrow=none;html=1;rounded=0;curved=1;entryX=0.461;entryY=0.007;entryDx=0;entryDy=0;entryPerimeter=0;exitX=0.461;exitY=1.012;exitDx=0;exitDy=0;exitPerimeter=0;" parent="1" source="rH0CdrNNq3nPDVMNNMGI-377" target="rH0CdrNNq3nPDVMNNMGI-377" edge="1">
          <mxGeometry width="50" height="50" relative="1" as="geometry">
            <mxPoint x="555" y="-70" as="sourcePoint" />
            <mxPoint x="605" y="-120" as="targetPoint" />
          </mxGeometry>
        </mxCell>
        <mxCell id="rH0CdrNNq3nPDVMNNMGI-463" value="" style="endArrow=none;html=1;rounded=0;curved=1;exitX=0.798;exitY=1.043;exitDx=0;exitDy=0;exitPerimeter=0;" parent="1" source="rH0CdrNNq3nPDVMNNMGI-377" edge="1">
          <mxGeometry width="50" height="50" relative="1" as="geometry">
            <mxPoint x="695" y="-130" as="sourcePoint" />
            <mxPoint x="728" y="-180" as="targetPoint" />
          </mxGeometry>
        </mxCell>
        <mxCell id="lQQfcCByQZRkne6mx2-H-2" value="&lt;b&gt;&lt;font style=&quot;font-size: 24px;&quot;&gt;Relational Schema&lt;/font&gt;&lt;/b&gt;" style="text;html=1;strokeColor=none;fillColor=none;align=center;verticalAlign=middle;whiteSpace=wrap;rounded=0;" parent="1" vertex="1">
          <mxGeometry x="-575" y="-1075" width="300" height="30" as="geometry" />
        </mxCell>
        <mxCell id="53xANSUxu1wuUrc7C31E-1" value="password" style="whiteSpace=wrap;html=1;align=center;" vertex="1" parent="1">
          <mxGeometry x="290" y="-720" width="100" height="40" as="geometry" />
        </mxCell>
        <mxCell id="53xANSUxu1wuUrc7C31E-2" value="first_name" style="whiteSpace=wrap;html=1;align=center;" vertex="1" parent="1">
          <mxGeometry x="390" y="-720" width="100" height="40" as="geometry" />
        </mxCell>
        <mxCell id="53xANSUxu1wuUrc7C31E-3" value="last_name" style="whiteSpace=wrap;html=1;align=center;" vertex="1" parent="1">
          <mxGeometry x="490" y="-720" width="100" height="40" as="geometry" />
        </mxCell>
        <mxCell id="53xANSUxu1wuUrc7C31E-4" value="event" style="whiteSpace=wrap;html=1;align=center;" vertex="1" parent="1">
          <mxGeometry x="590" y="-720" width="100" height="40" as="geometry" />
        </mxCell>
        <mxCell id="53xANSUxu1wuUrc7C31E-5" value="title" style="whiteSpace=wrap;html=1;align=center;" vertex="1" parent="1">
          <mxGeometry x="527.5" y="-499.99" width="100" height="50" as="geometry" />
        </mxCell>
        <mxCell id="53xANSUxu1wuUrc7C31E-6" value="sent_at" style="whiteSpace=wrap;html=1;align=center;" vertex="1" parent="1">
          <mxGeometry x="430" y="-499.99" width="100" height="50" as="geometry" />
        </mxCell>
        <mxCell id="53xANSUxu1wuUrc7C31E-7" value="created_at" style="whiteSpace=wrap;html=1;align=center;" vertex="1" parent="1">
          <mxGeometry x="330" y="-499.99" width="100" height="50" as="geometry" />
        </mxCell>
        <mxCell id="53xANSUxu1wuUrc7C31E-8" value="event_id" style="whiteSpace=wrap;html=1;align=center;" vertex="1" parent="1">
          <mxGeometry x="1390" y="-940" width="100" height="40" as="geometry" />
        </mxCell>
        <mxCell id="53xANSUxu1wuUrc7C31E-9" value="description" style="whiteSpace=wrap;html=1;align=center;" vertex="1" parent="1">
          <mxGeometry x="1290" y="-940" width="100" height="40" as="geometry" />
        </mxCell>
        <mxCell id="53xANSUxu1wuUrc7C31E-10" value="name" style="whiteSpace=wrap;html=1;align=center;" vertex="1" parent="1">
          <mxGeometry x="1190" y="-940" width="100" height="40" as="geometry" />
        </mxCell>
        <mxCell id="53xANSUxu1wuUrc7C31E-11" value="ticket_id" style="whiteSpace=wrap;html=1;align=center;" vertex="1" parent="1">
          <mxGeometry x="855" y="-900" width="100" height="50" as="geometry" />
        </mxCell>
        <mxCell id="53xANSUxu1wuUrc7C31E-12" value="addr_geocordinates" style="whiteSpace=wrap;html=1;align=center;" vertex="1" parent="1">
          <mxGeometry x="1220" y="-720" width="120" height="40" as="geometry" />
        </mxCell>
        <mxCell id="53xANSUxu1wuUrc7C31E-63" style="edgeStyle=orthogonalEdgeStyle;rounded=0;orthogonalLoop=1;jettySize=auto;html=1;exitX=0.75;exitY=0;exitDx=0;exitDy=0;entryX=0.75;entryY=1;entryDx=0;entryDy=0;" edge="1" parent="1" source="53xANSUxu1wuUrc7C31E-13" target="53xANSUxu1wuUrc7C31E-44">
          <mxGeometry relative="1" as="geometry" />
        </mxCell>
        <mxCell id="53xANSUxu1wuUrc7C31E-67" style="edgeStyle=orthogonalEdgeStyle;rounded=0;orthogonalLoop=1;jettySize=auto;html=1;exitX=0.75;exitY=1;exitDx=0;exitDy=0;" edge="1" parent="1" source="53xANSUxu1wuUrc7C31E-13">
          <mxGeometry relative="1" as="geometry">
            <mxPoint x="870" y="-640" as="targetPoint" />
            <Array as="points">
              <mxPoint x="-165" y="-660" />
              <mxPoint x="840" y="-660" />
              <mxPoint x="840" y="-670" />
              <mxPoint x="870" y="-670" />
              <mxPoint x="870" y="-660" />
            </Array>
          </mxGeometry>
        </mxCell>
        <mxCell id="53xANSUxu1wuUrc7C31E-76" style="edgeStyle=orthogonalEdgeStyle;rounded=0;orthogonalLoop=1;jettySize=auto;html=1;exitX=0.5;exitY=1;exitDx=0;exitDy=0;" edge="1" parent="1" source="53xANSUxu1wuUrc7C31E-13">
          <mxGeometry relative="1" as="geometry">
            <mxPoint x="550" y="-620" as="targetPoint" />
          </mxGeometry>
        </mxCell>
        <mxCell id="53xANSUxu1wuUrc7C31E-95" style="edgeStyle=orthogonalEdgeStyle;rounded=0;orthogonalLoop=1;jettySize=auto;html=1;exitX=0.25;exitY=1;exitDx=0;exitDy=0;entryX=0.843;entryY=0.996;entryDx=0;entryDy=0;entryPerimeter=0;" edge="1" parent="1" source="53xANSUxu1wuUrc7C31E-13">
          <mxGeometry relative="1" as="geometry">
            <mxPoint x="1791.8000000000002" y="-720.0000000000003" as="targetPoint" />
            <mxPoint x="-227.5" y="-669.84" as="sourcePoint" />
            <Array as="points">
              <mxPoint x="-227" y="-680" />
              <mxPoint x="-227" y="-656" />
              <mxPoint x="-202" y="-656" />
              <mxPoint x="-202" y="-530" />
              <mxPoint x="638" y="-530" />
              <mxPoint x="638" y="-520" />
              <mxPoint x="1808" y="-520" />
              <mxPoint x="1808" y="-630" />
              <mxPoint x="1792" y="-630" />
            </Array>
          </mxGeometry>
        </mxCell>
        <mxCell id="53xANSUxu1wuUrc7C31E-113" style="edgeStyle=orthogonalEdgeStyle;rounded=0;orthogonalLoop=1;jettySize=auto;html=1;exitX=0.25;exitY=1;exitDx=0;exitDy=0;entryX=0.75;entryY=1;entryDx=0;entryDy=0;" edge="1" parent="1" source="53xANSUxu1wuUrc7C31E-13" target="53xANSUxu1wuUrc7C31E-101">
          <mxGeometry relative="1" as="geometry">
            <mxPoint x="2210" y="-640" as="targetPoint" />
            <Array as="points">
              <mxPoint x="-215" y="-560" />
              <mxPoint x="1990" y="-560" />
              <mxPoint x="1990" y="-440" />
              <mxPoint x="2620" y="-440" />
              <mxPoint x="2620" y="-640" />
              <mxPoint x="2615" y="-640" />
            </Array>
          </mxGeometry>
        </mxCell>
        <mxCell id="53xANSUxu1wuUrc7C31E-13" value="user_id" style="whiteSpace=wrap;html=1;align=center;" vertex="1" parent="1">
          <mxGeometry x="-240" y="-720" width="100" height="40" as="geometry" />
        </mxCell>
        <mxCell id="53xANSUxu1wuUrc7C31E-14" value="is_verified" style="whiteSpace=wrap;html=1;align=center;" vertex="1" parent="1">
          <mxGeometry x="1020" y="-720" width="100" height="40" as="geometry" />
        </mxCell>
        <mxCell id="53xANSUxu1wuUrc7C31E-15" value="profile_image" style="whiteSpace=wrap;html=1;align=center;" vertex="1" parent="1">
          <mxGeometry x="920" y="-720" width="100" height="40" as="geometry" />
        </mxCell>
        <mxCell id="53xANSUxu1wuUrc7C31E-16" value="password_reset_token" style="whiteSpace=wrap;html=1;align=center;" vertex="1" parent="1">
          <mxGeometry x="790" y="-720" width="130" height="40" as="geometry" />
        </mxCell>
        <mxCell id="53xANSUxu1wuUrc7C31E-17" value="verification" style="whiteSpace=wrap;html=1;align=center;" vertex="1" parent="1">
          <mxGeometry x="690" y="-720" width="100" height="40" as="geometry" />
        </mxCell>
        <mxCell id="53xANSUxu1wuUrc7C31E-19" value="notification_preference" style="whiteSpace=wrap;html=1;align=center;" vertex="1" parent="1">
          <mxGeometry x="160" y="-720" width="130" height="40" as="geometry" />
        </mxCell>
        <mxCell id="53xANSUxu1wuUrc7C31E-20" value="email" style="whiteSpace=wrap;html=1;align=center;" vertex="1" parent="1">
          <mxGeometry x="-140" y="-720" width="100" height="40" as="geometry" />
        </mxCell>
        <mxCell id="53xANSUxu1wuUrc7C31E-21" value="role" style="whiteSpace=wrap;html=1;align=center;" vertex="1" parent="1">
          <mxGeometry x="-40" y="-720" width="100" height="40" as="geometry" />
        </mxCell>
        <mxCell id="53xANSUxu1wuUrc7C31E-22" value="phone" style="whiteSpace=wrap;html=1;align=center;" vertex="1" parent="1">
          <mxGeometry x="60" y="-720" width="100" height="40" as="geometry" />
        </mxCell>
        <mxCell id="53xANSUxu1wuUrc7C31E-23" value="is_active" style="whiteSpace=wrap;html=1;align=center;" vertex="1" parent="1">
          <mxGeometry x="1120" y="-720" width="100" height="40" as="geometry" />
        </mxCell>
        <mxCell id="53xANSUxu1wuUrc7C31E-24" value="price" style="whiteSpace=wrap;html=1;align=center;" vertex="1" parent="1">
          <mxGeometry x="1090" y="-940" width="100" height="40" as="geometry" />
        </mxCell>
        <mxCell id="53xANSUxu1wuUrc7C31E-31" value="visibility" style="whiteSpace=wrap;html=1;align=center;" vertex="1" parent="1">
          <mxGeometry x="520" y="-900" width="100" height="50" as="geometry" />
        </mxCell>
        <mxCell id="53xANSUxu1wuUrc7C31E-34" value="location_geocordinates" style="whiteSpace=wrap;html=1;align=center;" vertex="1" parent="1">
          <mxGeometry x="620" y="-900" width="140" height="50" as="geometry" />
        </mxCell>
        <mxCell id="53xANSUxu1wuUrc7C31E-35" value="event_category" style="whiteSpace=wrap;html=1;align=center;" vertex="1" parent="1">
          <mxGeometry x="755" y="-900" width="100" height="50" as="geometry" />
        </mxCell>
        <mxCell id="53xANSUxu1wuUrc7C31E-36" value="" style="endArrow=none;dashed=1;html=1;dashPattern=1 3;strokeWidth=2;rounded=0;exitX=0.2;exitY=0.8;exitDx=0;exitDy=0;exitPerimeter=0;" edge="1" parent="1" source="53xANSUxu1wuUrc7C31E-11">
          <mxGeometry width="50" height="50" relative="1" as="geometry">
            <mxPoint x="1000" y="-820" as="sourcePoint" />
            <mxPoint x="940" y="-860" as="targetPoint" />
          </mxGeometry>
        </mxCell>
        <mxCell id="53xANSUxu1wuUrc7C31E-109" style="edgeStyle=orthogonalEdgeStyle;rounded=0;orthogonalLoop=1;jettySize=auto;html=1;exitX=0.5;exitY=1;exitDx=0;exitDy=0;entryX=0.25;entryY=0;entryDx=0;entryDy=0;" edge="1" parent="1" source="53xANSUxu1wuUrc7C31E-37" target="53xANSUxu1wuUrc7C31E-88">
          <mxGeometry relative="1" as="geometry" />
        </mxCell>
        <mxCell id="53xANSUxu1wuUrc7C31E-110" style="edgeStyle=orthogonalEdgeStyle;rounded=0;orthogonalLoop=1;jettySize=auto;html=1;exitX=0.75;exitY=1;exitDx=0;exitDy=0;" edge="1" parent="1" source="53xANSUxu1wuUrc7C31E-37">
          <mxGeometry relative="1" as="geometry">
            <mxPoint x="2200" y="-730" as="targetPoint" />
            <Array as="points">
              <mxPoint x="1065" y="-890" />
              <mxPoint x="2201" y="-890" />
              <mxPoint x="2201" y="-730" />
            </Array>
          </mxGeometry>
        </mxCell>
        <mxCell id="53xANSUxu1wuUrc7C31E-37" value="ticket_id" style="whiteSpace=wrap;html=1;align=center;" vertex="1" parent="1">
          <mxGeometry x="990" y="-940" width="100" height="40" as="geometry" />
        </mxCell>
        <mxCell id="53xANSUxu1wuUrc7C31E-38" value="Ticket" style="text;html=1;align=center;verticalAlign=middle;resizable=0;points=[];autosize=1;strokeColor=none;fillColor=none;" vertex="1" parent="1">
          <mxGeometry x="1000" y="-980" width="60" height="30" as="geometry" />
        </mxCell>
        <mxCell id="53xANSUxu1wuUrc7C31E-40" value="" style="endArrow=none;dashed=1;html=1;rounded=0;exitX=0.1;exitY=0.75;exitDx=0;exitDy=0;exitPerimeter=0;" edge="1" parent="1" source="53xANSUxu1wuUrc7C31E-8">
          <mxGeometry width="50" height="50" relative="1" as="geometry">
            <mxPoint x="910" y="-830" as="sourcePoint" />
            <mxPoint x="1470" y="-910" as="targetPoint" />
          </mxGeometry>
        </mxCell>
        <mxCell id="53xANSUxu1wuUrc7C31E-41" value="token" style="whiteSpace=wrap;html=1;align=center;" vertex="1" parent="1">
          <mxGeometry x="415" y="-615" width="100" height="40" as="geometry" />
        </mxCell>
        <mxCell id="53xANSUxu1wuUrc7C31E-42" value="created_at" style="whiteSpace=wrap;html=1;align=center;" vertex="1" parent="1">
          <mxGeometry x="315" y="-615" width="100" height="40" as="geometry" />
        </mxCell>
        <mxCell id="53xANSUxu1wuUrc7C31E-43" value="user_id" style="whiteSpace=wrap;html=1;align=center;" vertex="1" parent="1">
          <mxGeometry x="515" y="-615" width="100" height="40" as="geometry" />
        </mxCell>
        <mxCell id="53xANSUxu1wuUrc7C31E-44" value="user_id" style="whiteSpace=wrap;html=1;align=center;" vertex="1" parent="1">
          <mxGeometry x="890" y="-800" width="100" height="40" as="geometry" />
        </mxCell>
        <mxCell id="53xANSUxu1wuUrc7C31E-45" value="verification_code" style="whiteSpace=wrap;html=1;align=center;" vertex="1" parent="1">
          <mxGeometry x="790" y="-800" width="100" height="40" as="geometry" />
        </mxCell>
        <mxCell id="53xANSUxu1wuUrc7C31E-46" value="content_hash" style="whiteSpace=wrap;html=1;align=center;" vertex="1" parent="1">
          <mxGeometry x="625" y="-499.99" width="100" height="50" as="geometry" />
        </mxCell>
        <mxCell id="53xANSUxu1wuUrc7C31E-47" value="Email_Address" style="text;html=1;align=center;verticalAlign=middle;resizable=0;points=[];autosize=1;strokeColor=none;fillColor=none;" vertex="1" parent="1">
          <mxGeometry x="115" y="-1115" width="100" height="30" as="geometry" />
        </mxCell>
        <mxCell id="53xANSUxu1wuUrc7C31E-48" value="verified_at" style="whiteSpace=wrap;html=1;align=center;" vertex="1" parent="1">
          <mxGeometry x="690" y="-800" width="100" height="40" as="geometry" />
        </mxCell>
        <mxCell id="53xANSUxu1wuUrc7C31E-49" value="is_verified" style="whiteSpace=wrap;html=1;align=center;" vertex="1" parent="1">
          <mxGeometry x="595" y="-800" width="100" height="40" as="geometry" />
        </mxCell>
        <mxCell id="53xANSUxu1wuUrc7C31E-50" value="phone_id" style="whiteSpace=wrap;html=1;align=center;" vertex="1" parent="1">
          <mxGeometry x="495" y="-800" width="100" height="40" as="geometry" />
        </mxCell>
        <mxCell id="53xANSUxu1wuUrc7C31E-52" value="verification code" style="whiteSpace=wrap;html=1;align=center;" vertex="1" parent="1">
          <mxGeometry x="640" y="-1085" width="100" height="40" as="geometry" />
        </mxCell>
        <mxCell id="53xANSUxu1wuUrc7C31E-59" style="edgeStyle=orthogonalEdgeStyle;rounded=0;orthogonalLoop=1;jettySize=auto;html=1;exitX=0.5;exitY=0;exitDx=0;exitDy=0;entryX=0;entryY=0.25;entryDx=0;entryDy=0;" edge="1" parent="1" source="53xANSUxu1wuUrc7C31E-53" target="53xANSUxu1wuUrc7C31E-13">
          <mxGeometry relative="1" as="geometry">
            <mxPoint x="-310" y="-700" as="targetPoint" />
            <Array as="points">
              <mxPoint x="590" y="-1110" />
              <mxPoint x="-290" y="-1110" />
              <mxPoint x="-290" y="-710" />
            </Array>
          </mxGeometry>
        </mxCell>
        <mxCell id="53xANSUxu1wuUrc7C31E-53" value="user_id" style="whiteSpace=wrap;html=1;align=center;" vertex="1" parent="1">
          <mxGeometry x="540" y="-1085" width="100" height="40" as="geometry" />
        </mxCell>
        <mxCell id="53xANSUxu1wuUrc7C31E-54" value="verified_at" style="whiteSpace=wrap;html=1;align=center;" vertex="1" parent="1">
          <mxGeometry x="440" y="-1085" width="100" height="40" as="geometry" />
        </mxCell>
        <mxCell id="53xANSUxu1wuUrc7C31E-55" value="is_verified" style="whiteSpace=wrap;html=1;align=center;" vertex="1" parent="1">
          <mxGeometry x="340" y="-1085" width="100" height="40" as="geometry" />
        </mxCell>
        <mxCell id="53xANSUxu1wuUrc7C31E-56" value="email_id" style="whiteSpace=wrap;html=1;align=center;" vertex="1" parent="1">
          <mxGeometry x="140" y="-1085" width="100" height="40" as="geometry" />
        </mxCell>
        <mxCell id="53xANSUxu1wuUrc7C31E-57" value="email" style="whiteSpace=wrap;html=1;align=center;" vertex="1" parent="1">
          <mxGeometry x="240" y="-1085" width="100" height="40" as="geometry" />
        </mxCell>
        <mxCell id="53xANSUxu1wuUrc7C31E-60" value="phone number" style="text;html=1;align=center;verticalAlign=middle;resizable=0;points=[];autosize=1;strokeColor=none;fillColor=none;" vertex="1" parent="1">
          <mxGeometry x="460" y="-842" width="100" height="30" as="geometry" />
        </mxCell>
        <mxCell id="53xANSUxu1wuUrc7C31E-61" value="number" style="whiteSpace=wrap;html=1;align=center;" vertex="1" parent="1">
          <mxGeometry x="990" y="-800" width="100" height="40" as="geometry" />
        </mxCell>
        <mxCell id="53xANSUxu1wuUrc7C31E-62" value="" style="endArrow=none;dashed=1;html=1;rounded=0;entryX=0.7;entryY=0.75;entryDx=0;entryDy=0;entryPerimeter=0;exitX=0;exitY=0.75;exitDx=0;exitDy=0;" edge="1" parent="1" source="53xANSUxu1wuUrc7C31E-44" target="53xANSUxu1wuUrc7C31E-44">
          <mxGeometry width="50" height="50" relative="1" as="geometry">
            <mxPoint x="720" y="-730" as="sourcePoint" />
            <mxPoint x="770" y="-780" as="targetPoint" />
          </mxGeometry>
        </mxCell>
        <mxCell id="53xANSUxu1wuUrc7C31E-64" style="edgeStyle=orthogonalEdgeStyle;rounded=0;orthogonalLoop=1;jettySize=auto;html=1;entryX=0.562;entryY=-0.142;entryDx=0;entryDy=0;entryPerimeter=0;" edge="1" parent="1" source="53xANSUxu1wuUrc7C31E-13" target="rH0CdrNNq3nPDVMNNMGI-369">
          <mxGeometry relative="1" as="geometry">
            <Array as="points">
              <mxPoint x="-320" y="-700" />
              <mxPoint x="-320" y="-280" />
              <mxPoint x="-119" y="-280" />
            </Array>
          </mxGeometry>
        </mxCell>
        <mxCell id="53xANSUxu1wuUrc7C31E-66" value="preset_token_id" style="whiteSpace=wrap;html=1;align=center;" vertex="1" parent="1">
          <mxGeometry x="215" y="-615" width="100" height="40" as="geometry" />
        </mxCell>
        <mxCell id="53xANSUxu1wuUrc7C31E-68" value="Password_reset_token" style="text;html=1;align=center;verticalAlign=middle;resizable=0;points=[];autosize=1;strokeColor=none;fillColor=none;" vertex="1" parent="1">
          <mxGeometry x="180" y="-640" width="150" height="30" as="geometry" />
        </mxCell>
        <mxCell id="53xANSUxu1wuUrc7C31E-69" value="face_image_link" style="whiteSpace=wrap;html=1;align=center;" vertex="1" parent="1">
          <mxGeometry x="1145" y="-629.08" width="100" height="40" as="geometry" />
        </mxCell>
        <mxCell id="53xANSUxu1wuUrc7C31E-70" value="content_hash" style="whiteSpace=wrap;html=1;align=center;" vertex="1" parent="1">
          <mxGeometry x="1535" y="-629.08" width="100" height="40" as="geometry" />
        </mxCell>
        <mxCell id="53xANSUxu1wuUrc7C31E-71" value="nickback_image_link" style="whiteSpace=wrap;html=1;align=center;" vertex="1" parent="1">
          <mxGeometry x="1355" y="-629.08" width="180" height="40" as="geometry" />
        </mxCell>
        <mxCell id="53xANSUxu1wuUrc7C31E-72" value="nickfront_image_link" style="whiteSpace=wrap;html=1;align=center;" vertex="1" parent="1">
          <mxGeometry x="1245" y="-629.08" width="110" height="40" as="geometry" />
        </mxCell>
        <mxCell id="53xANSUxu1wuUrc7C31E-74" value="" style="endArrow=none;dashed=1;html=1;rounded=0;entryX=0.75;entryY=0.625;entryDx=0;entryDy=0;entryPerimeter=0;" edge="1" parent="1" target="53xANSUxu1wuUrc7C31E-43">
          <mxGeometry width="50" height="50" relative="1" as="geometry">
            <mxPoint x="530" y="-590" as="sourcePoint" />
            <mxPoint x="330" y="-650" as="targetPoint" />
          </mxGeometry>
        </mxCell>
        <mxCell id="53xANSUxu1wuUrc7C31E-77" value="amount" style="whiteSpace=wrap;html=1;align=center;" vertex="1" parent="1">
          <mxGeometry x="2240" y="-720" width="100" height="40" as="geometry" />
        </mxCell>
        <mxCell id="53xANSUxu1wuUrc7C31E-78" value="ticket_id" style="whiteSpace=wrap;html=1;align=center;" vertex="1" parent="1">
          <mxGeometry x="2140" y="-720" width="100" height="40" as="geometry" />
        </mxCell>
        <mxCell id="53xANSUxu1wuUrc7C31E-79" value="receipt_id" style="whiteSpace=wrap;html=1;align=center;" vertex="1" parent="1">
          <mxGeometry x="1320" y="-770" width="100" height="40" as="geometry" />
        </mxCell>
        <mxCell id="53xANSUxu1wuUrc7C31E-80" value="created_at" style="whiteSpace=wrap;html=1;align=center;" vertex="1" parent="1">
          <mxGeometry x="1920" y="-770" width="100" height="40" as="geometry" />
        </mxCell>
        <mxCell id="53xANSUxu1wuUrc7C31E-81" value="payment" style="whiteSpace=wrap;html=1;align=center;" vertex="1" parent="1">
          <mxGeometry x="1820" y="-770" width="100" height="40" as="geometry" />
        </mxCell>
        <mxCell id="53xANSUxu1wuUrc7C31E-82" value="user_id" style="whiteSpace=wrap;html=1;align=center;" vertex="1" parent="1">
          <mxGeometry x="1720" y="-770" width="100" height="40" as="geometry" />
        </mxCell>
        <mxCell id="53xANSUxu1wuUrc7C31E-83" value="ticket_code" style="whiteSpace=wrap;html=1;align=center;" vertex="1" parent="1">
          <mxGeometry x="1620" y="-770" width="100" height="40" as="geometry" />
        </mxCell>
        <mxCell id="53xANSUxu1wuUrc7C31E-84" value="payment_method" style="whiteSpace=wrap;html=1;align=center;" vertex="1" parent="1">
          <mxGeometry x="1520" y="-770" width="100" height="40" as="geometry" />
        </mxCell>
        <mxCell id="53xANSUxu1wuUrc7C31E-85" value="cost" style="whiteSpace=wrap;html=1;align=center;" vertex="1" parent="1">
          <mxGeometry x="1420" y="-770" width="100" height="40" as="geometry" />
        </mxCell>
        <mxCell id="53xANSUxu1wuUrc7C31E-87" value="Ticket-receipt" style="text;html=1;align=center;verticalAlign=middle;resizable=0;points=[];autosize=1;strokeColor=none;fillColor=none;" vertex="1" parent="1">
          <mxGeometry x="1320" y="-808" width="100" height="30" as="geometry" />
        </mxCell>
        <mxCell id="53xANSUxu1wuUrc7C31E-88" value="ticket_id" style="whiteSpace=wrap;html=1;align=center;" vertex="1" parent="1">
          <mxGeometry x="2020" y="-770" width="100" height="40" as="geometry" />
        </mxCell>
        <mxCell id="53xANSUxu1wuUrc7C31E-90" value="" style="endArrow=none;html=1;rounded=0;exitX=0;exitY=0.75;exitDx=0;exitDy=0;" edge="1" parent="1" source="53xANSUxu1wuUrc7C31E-79">
          <mxGeometry width="50" height="50" relative="1" as="geometry">
            <mxPoint x="1450" y="-650" as="sourcePoint" />
            <mxPoint x="1400" y="-740" as="targetPoint" />
          </mxGeometry>
        </mxCell>
        <mxCell id="53xANSUxu1wuUrc7C31E-92" value="" style="endArrow=none;dashed=1;html=1;rounded=0;entryX=0.7;entryY=0.75;entryDx=0;entryDy=0;entryPerimeter=0;exitX=0.2;exitY=0.75;exitDx=0;exitDy=0;exitPerimeter=0;" edge="1" parent="1" source="53xANSUxu1wuUrc7C31E-82" target="53xANSUxu1wuUrc7C31E-82">
          <mxGeometry width="50" height="50" relative="1" as="geometry">
            <mxPoint x="1450" y="-650" as="sourcePoint" />
            <mxPoint x="1500" y="-700" as="targetPoint" />
          </mxGeometry>
        </mxCell>
        <mxCell id="53xANSUxu1wuUrc7C31E-96" value="created_At" style="whiteSpace=wrap;html=1;align=center;" vertex="1" parent="1">
          <mxGeometry x="2340" y="-720" width="100" height="40" as="geometry" />
        </mxCell>
        <mxCell id="53xANSUxu1wuUrc7C31E-97" value="ticket_quantity" style="whiteSpace=wrap;html=1;align=center;" vertex="1" parent="1">
          <mxGeometry x="2440" y="-720" width="100" height="40" as="geometry" />
        </mxCell>
        <mxCell id="53xANSUxu1wuUrc7C31E-99" value="payment_id" style="whiteSpace=wrap;html=1;align=center;" vertex="1" parent="1">
          <mxGeometry x="2040" y="-720" width="100" height="40" as="geometry" />
        </mxCell>
        <mxCell id="53xANSUxu1wuUrc7C31E-100" value="status" style="whiteSpace=wrap;html=1;align=center;" vertex="1" parent="1">
          <mxGeometry x="2640" y="-720" width="100" height="40" as="geometry" />
        </mxCell>
        <mxCell id="53xANSUxu1wuUrc7C31E-101" value="user_id" style="whiteSpace=wrap;html=1;align=center;" vertex="1" parent="1">
          <mxGeometry x="2540" y="-720" width="100" height="40" as="geometry" />
        </mxCell>
        <mxCell id="53xANSUxu1wuUrc7C31E-102" value="ticket_receipt" style="whiteSpace=wrap;html=1;align=center;" vertex="1" parent="1">
          <mxGeometry x="2740" y="-720" width="100" height="40" as="geometry" />
        </mxCell>
        <mxCell id="53xANSUxu1wuUrc7C31E-103" value="" style="endArrow=none;html=1;rounded=0;exitX=0.8;exitY=0.75;exitDx=0;exitDy=0;exitPerimeter=0;" edge="1" parent="1" source="53xANSUxu1wuUrc7C31E-99">
          <mxGeometry width="50" height="50" relative="1" as="geometry">
            <mxPoint x="2180" y="-590" as="sourcePoint" />
            <mxPoint x="2060" y="-690" as="targetPoint" />
          </mxGeometry>
        </mxCell>
        <mxCell id="53xANSUxu1wuUrc7C31E-106" value="" style="endArrow=none;dashed=1;html=1;rounded=0;exitX=0.2;exitY=0.75;exitDx=0;exitDy=0;exitPerimeter=0;" edge="1" parent="1" source="53xANSUxu1wuUrc7C31E-78">
          <mxGeometry width="50" height="50" relative="1" as="geometry">
            <mxPoint x="2180" y="-650" as="sourcePoint" />
            <mxPoint x="2230" y="-690" as="targetPoint" />
          </mxGeometry>
        </mxCell>
        <mxCell id="53xANSUxu1wuUrc7C31E-107" value="" style="endArrow=none;dashed=1;html=1;rounded=0;entryX=0.8;entryY=0.75;entryDx=0;entryDy=0;entryPerimeter=0;" edge="1" parent="1" target="53xANSUxu1wuUrc7C31E-88">
          <mxGeometry width="50" height="50" relative="1" as="geometry">
            <mxPoint x="2040" y="-740" as="sourcePoint" />
            <mxPoint x="1750" y="-760" as="targetPoint" />
          </mxGeometry>
        </mxCell>
        <mxCell id="53xANSUxu1wuUrc7C31E-111" value="" style="endArrow=none;dashed=1;html=1;rounded=0;" edge="1" parent="1">
          <mxGeometry width="50" height="50" relative="1" as="geometry">
            <mxPoint x="2560" y="-690" as="sourcePoint" />
            <mxPoint x="2630" y="-690" as="targetPoint" />
          </mxGeometry>
        </mxCell>
        <mxCell id="53xANSUxu1wuUrc7C31E-115" value="" style="endArrow=none;html=1;rounded=0;exitX=0.3;exitY=0.75;exitDx=0;exitDy=0;exitPerimeter=0;" edge="1" parent="1" source="53xANSUxu1wuUrc7C31E-37">
          <mxGeometry width="50" height="50" relative="1" as="geometry">
            <mxPoint x="1020" y="-860" as="sourcePoint" />
            <mxPoint x="1070" y="-910" as="targetPoint" />
          </mxGeometry>
        </mxCell>
      </root>
    </mxGraphModel>
  </diagram>
</mxfile>
